<svg width="21" height="21" viewBox="0 0 21 21" fill="none" xmlns="http://www.w3.org/2000/svg">
<path d="M1.57812 6.33594C1.57813 5.59002 1.87444 4.87465 2.40189 4.3472C2.92933 3.81975 3.6447 3.52344 4.39062 3.52344H16.2656C17.0115 3.52344 17.7269 3.81975 18.2544 4.3472C18.7818 4.87465 19.0781 5.59002 19.0781 6.33594V14.4609C19.0781 15.2069 18.7818 15.9222 18.2544 16.4497C17.7269 16.9771 17.0115 17.2734 16.2656 17.2734H4.39062C3.6447 17.2734 2.92933 16.9771 2.40189 16.4497C1.87444 15.9222 1.57813 15.2069 1.57812 14.4609V6.33594ZM4.39062 4.77344C3.97622 4.77344 3.5788 4.93806 3.28577 5.23108C2.99275 5.52411 2.82812 5.92154 2.82812 6.33594V7.27344H17.8281V6.33594C17.8281 5.92154 17.6635 5.52411 17.3705 5.23108C17.0775 4.93806 16.68 4.77344 16.2656 4.77344H4.39062ZM2.82812 14.4609C2.82812 14.8753 2.99275 15.2728 3.28577 15.5658C3.5788 15.8588 3.97622 16.0234 4.39062 16.0234H16.2656C16.68 16.0234 17.0775 15.8588 17.3705 15.5658C17.6635 15.2728 17.8281 14.8753 17.8281 14.4609V8.52344H2.82812V14.4609ZM13.4531 12.2734H15.3281C15.4939 12.2734 15.6529 12.3393 15.7701 12.4565C15.8873 12.5737 15.9531 12.7327 15.9531 12.8984C15.9531 13.0642 15.8873 13.2232 15.7701 13.3404C15.6529 13.4576 15.4939 13.5234 15.3281 13.5234H13.4531C13.2874 13.5234 13.1284 13.4576 13.0112 13.3404C12.894 13.2232 12.8281 13.0642 12.8281 12.8984C12.8281 12.7327 12.894 12.5737 13.0112 12.4565C13.1284 12.3393 13.2874 12.2734 13.4531 12.2734Z" fill="white"/>
</svg>
