<svg width="20" height="18" viewBox="0 0 20 18" fill="none" xmlns="http://www.w3.org/2000/svg">
<path d="M8.32812 8.86328C7.22813 8.86328 6.28646 8.47161 5.50313 7.68828C4.71979 6.90495 4.32812 5.96328 4.32812 4.86328C4.32812 3.76328 4.71979 2.82161 5.50313 2.03828C6.28646 1.25495 7.22813 0.863281 8.32812 0.863281C9.42813 0.863281 10.3698 1.25495 11.1531 2.03828C11.9365 2.82161 12.3281 3.76328 12.3281 4.86328C12.3281 5.96328 11.9365 6.90495 11.1531 7.68828C10.3698 8.47161 9.42813 8.86328 8.32812 8.86328ZM0.328125 14.8633V14.0633C0.328125 13.5133 0.469792 12.9966 0.753125 12.5133C1.03646 12.0299 1.42812 11.6633 1.92812 11.4133C2.89479 10.9299 3.89479 10.5506 4.92812 10.2753C5.96146 9.99995 7.01979 9.86261 8.10312 9.86328C8.38646 9.86328 8.62412 9.96328 8.81612 10.1633C9.00813 10.3633 9.10379 10.6049 9.10312 10.8883C9.10312 11.1716 9.00713 11.4093 8.81513 11.6013C8.62313 11.7933 8.38579 11.8889 8.10312 11.8883C7.16979 11.8883 6.26546 12.0049 5.39012 12.2383C4.51479 12.4716 3.66079 12.7966 2.82812 13.2133C2.66146 13.2966 2.53646 13.4133 2.45312 13.5633C2.36979 13.7133 2.32812 13.8799 2.32812 14.0633V14.8633H8.10312C8.38646 14.8633 8.62412 14.9593 8.81612 15.1513C9.00813 15.3433 9.10379 15.5806 9.10312 15.8633C9.10312 16.1466 9.00713 16.3843 8.81513 16.5763C8.62313 16.7683 8.38612 16.8639 8.10413 16.8633H2.32812C1.77813 16.8633 1.30746 16.6676 0.916125 16.2763C0.524792 15.8849 0.328792 15.4139 0.328125 14.8633ZM14.1781 17.0633L14.0281 16.3633C13.8281 16.2799 13.6408 16.1926 13.4661 16.1013C13.2915 16.0099 13.1121 15.8973 12.9281 15.7633L12.2031 15.9883C11.9865 16.0549 11.7741 16.0466 11.5661 15.9633C11.3581 15.8799 11.1955 15.7466 11.0781 15.5633L10.8781 15.2133C10.7615 15.0133 10.7198 14.7966 10.7531 14.5633C10.7865 14.3299 10.8948 14.1383 11.0781 13.9883L11.6281 13.5133C11.5948 13.2799 11.5781 13.0633 11.5781 12.8633C11.5781 12.6633 11.5948 12.4466 11.6281 12.2133L11.0781 11.7383C10.8948 11.5883 10.7865 11.4006 10.7531 11.1753C10.7198 10.9499 10.7615 10.7376 10.8781 10.5383L11.1031 10.1633C11.2198 9.97995 11.3781 9.84661 11.5781 9.76328C11.7781 9.67995 11.9865 9.67161 12.2031 9.73828L12.9281 9.96328C13.1115 9.82995 13.2908 9.71728 13.4661 9.62528C13.6415 9.53328 13.8288 9.44595 14.0281 9.36328L14.1781 8.63828C14.2281 8.40495 14.3408 8.21761 14.5161 8.07628C14.6915 7.93495 14.8955 7.86395 15.1281 7.86328H15.5281C15.7615 7.86328 15.9658 7.93828 16.1411 8.08828C16.3165 8.23828 16.4288 8.42995 16.4781 8.66328L16.6281 9.36328C16.8281 9.44661 17.0155 9.53828 17.1901 9.63828C17.3648 9.73828 17.5441 9.86328 17.7281 10.0133L18.4031 9.78828C18.6365 9.70495 18.8615 9.70495 19.0781 9.78828C19.2948 9.87161 19.4615 10.0133 19.5781 10.2133L19.7781 10.5633C19.8948 10.7633 19.9365 10.9799 19.9031 11.2133C19.8698 11.4466 19.7615 11.6383 19.5781 11.7883L19.0281 12.2633C19.0615 12.4633 19.0781 12.6716 19.0781 12.8883C19.0781 13.1049 19.0615 13.3133 19.0281 13.5133L19.5781 13.9883C19.7615 14.1383 19.8698 14.3259 19.9031 14.5513C19.9365 14.7766 19.8948 14.9889 19.7781 15.1883L19.5531 15.5633C19.4365 15.7466 19.2781 15.8799 19.0781 15.9633C18.8781 16.0466 18.6698 16.0549 18.4531 15.9883L17.7281 15.7633C17.5448 15.8966 17.3655 16.0089 17.1901 16.1003C17.0148 16.1916 16.8275 16.2793 16.6281 16.3633L16.4781 17.0883C16.4281 17.3216 16.3158 17.5093 16.1411 17.6513C15.9665 17.7933 15.7621 17.8639 15.5281 17.8633H15.1281C14.8948 17.8633 14.6908 17.7883 14.5161 17.6383C14.3415 17.4883 14.2288 17.2966 14.1781 17.0633ZM15.3281 14.8633C15.8781 14.8633 16.3491 14.6676 16.7411 14.2763C17.1331 13.8849 17.3288 13.4139 17.3281 12.8633C17.3281 12.3133 17.1325 11.8426 16.7411 11.4513C16.3498 11.0599 15.8788 10.8639 15.3281 10.8633C14.7781 10.8633 14.3075 11.0593 13.9161 11.4513C13.5248 11.8433 13.3288 12.3139 13.3281 12.8633C13.3281 13.4133 13.5241 13.8843 13.9161 14.2763C14.3081 14.6683 14.7788 14.8639 15.3281 14.8633ZM8.32812 6.86328C8.87813 6.86328 9.34912 6.66761 9.74113 6.27628C10.1331 5.88495 10.3288 5.41395 10.3281 4.86328C10.3281 4.31328 10.1325 3.84261 9.74113 3.45128C9.34979 3.05995 8.87879 2.86395 8.32812 2.86328C7.77812 2.86328 7.30746 3.05928 6.91613 3.45128C6.52479 3.84328 6.32879 4.31395 6.32812 4.86328C6.32812 5.41328 6.52413 5.88428 6.91613 6.27628C7.30813 6.66828 7.77879 6.86395 8.32812 6.86328Z" fill="white"/>
</svg>
